name ./resultDataOpenSim/trcMotMarkerGrf/sub06/grf-01-05.mot
datacolumns 19
datarows 17
range 0.50000000 0.56400000
endheader

                time	     ground_force_vx	     ground_force_vy	     ground_force_vz	     ground_force_px	     ground_force_py	     ground_force_pz	   l_ground_force_vx	   l_ground_force_vy	   l_ground_force_vz	   l_ground_force_px	   l_ground_force_py	   l_ground_force_pz	     ground_torque_x	     ground_torque_y	     ground_torque_z	   l_ground_torque_x	   l_ground_torque_y	   l_ground_torque_z	
          0.50000000	         53.42362787	        493.63981358	        -17.45711080	         -0.77951912	          0.00000000	          0.06877807	          0.00000000	          0.00000000	          0.00000000	          0.00000000	          0.00000000	          0.00000000	          0.00000000	          0.68067601	          0.00000000	          0.00000000	          0.00000000	          0.00000000	
          0.50400000	         54.76730534	        508.55989198	        -17.29673264	         -0.77885626	          0.00000000	          0.06826322	          0.00000000	          0.00000000	          0.00000000	          0.00000000	          0.00000000	          0.00000000	          0.00000000	          0.87694948	          0.00000000	          0.00000000	          0.00000000	          0.00000000	
          0.50800000	         56.63705575	        523.99515559	        -16.97481293	         -0.77824020	          0.00000000	          0.06772142	          0.00000000	          0.00000000	          0.00000000	          0.00000000	          0.00000000	          0.00000000	          0.00000000	          1.07539995	          0.00000000	          0.00000000	          0.00000000	          0.00000000	
          0.51200000	         59.24572201	        539.86068095	        -16.53221166	         -0.77769592	          0.00000000	          0.06716432	          0.00000000	          0.00000000	          0.00000000	          0.00000000	          0.00000000	          0.00000000	          0.00000000	          1.26562099	          0.00000000	          0.00000000	          0.00000000	          0.00000000	
          0.51600000	         62.65311364	        556.05402687	        -16.02524069	         -0.77722197	          0.00000000	          0.06660907	          0.00000000	          0.00000000	          0.00000000	          0.00000000	          0.00000000	          0.00000000	          0.00000000	          1.44020690	          0.00000000	          0.00000000	          0.00000000	          0.00000000	
          0.52000000	         66.77327861	        572.46719727	        -15.51853125	         -0.77679948	          0.00000000	          0.06607151	          0.00000000	          0.00000000	          0.00000000	          0.00000000	          0.00000000	          0.00000000	          0.00000000	          1.59560881	          0.00000000	          0.00000000	          0.00000000	          0.00000000	
          0.52400000	         71.42177763	        588.98471558	        -15.07545362	         -0.77640307	          0.00000000	          0.06556378	          0.00000000	          0.00000000	          0.00000000	          0.00000000	          0.00000000	          0.00000000	          0.00000000	          1.73167256	          0.00000000	          0.00000000	          0.00000000	          0.00000000	
          0.52800000	         76.38296772	        605.48434427	        -14.74754287	         -0.77601130	          0.00000000	          0.06509154	          0.00000000	          0.00000000	          0.00000000	          0.00000000	          0.00000000	          0.00000000	          0.00000000	          1.85027978	          0.00000000	          0.00000000	          0.00000000	          0.00000000	
          0.53200000	         81.47392059	        621.84775319	        -14.56776592	         -0.77560922	          0.00000000	          0.06465536	          0.00000000	          0.00000000	          0.00000000	          0.00000000	          0.00000000	          0.00000000	          0.00000000	          1.95380373	          0.00000000	          0.00000000	          0.00000000	          0.00000000	
          0.53600000	         86.58685544	        637.95921705	        -14.54999667	         -0.77519015	          0.00000000	          0.06425501	          0.00000000	          0.00000000	          0.00000000	          0.00000000	          0.00000000	          0.00000000	          0.00000000	          2.04399526	          0.00000000	          0.00000000	          0.00000000	          0.00000000	
          0.54000000	         91.70302671	        653.68667438	        -14.69190982	         -0.77475435	          0.00000000	          0.06389181	          0.00000000	          0.00000000	          0.00000000	          0.00000000	          0.00000000	          0.00000000	          0.00000000	          2.12154428	          0.00000000	          0.00000000	          0.00000000	          0.00000000	
          0.54400000	         96.88100181	        668.87312805	        -14.97896997	         -0.77430802	          0.00000000	          0.06357034	          0.00000000	          0.00000000	          0.00000000	          0.00000000	          0.00000000	          0.00000000	          0.00000000	          2.18619779	          0.00000000	          0.00000000	          0.00000000	          0.00000000	
          0.54800000	        102.22659497	        683.36053451	        -15.38874744	         -0.77386349	          0.00000000	          0.06329398	          0.00000000	          0.00000000	          0.00000000	          0.00000000	          0.00000000	          0.00000000	          0.00000000	          2.23716807	          0.00000000	          0.00000000	          0.00000000	          0.00000000	
          0.55200000	        107.85227304	        697.02668549	        -15.89436569	         -0.77343387	          0.00000000	          0.06306006	          0.00000000	          0.00000000	          0.00000000	          0.00000000	          0.00000000	          0.00000000	          0.00000000	          2.27362320	          0.00000000	          0.00000000	          0.00000000	          0.00000000	
          0.55600000	        113.83529437	        709.79804629	        -16.46751642	         -0.77302872	          0.00000000	          0.06286116	          0.00000000	          0.00000000	          0.00000000	          0.00000000	          0.00000000	          0.00000000	          0.00000000	          2.29516028	          0.00000000	          0.00000000	          0.00000000	          0.00000000	
          0.56000000	        120.18716393	        721.63279729	        -17.08225407	         -0.77265041	          0.00000000	          0.06268813	          0.00000000	          0.00000000	          0.00000000	          0.00000000	          0.00000000	          0.00000000	          0.00000000	          2.30218806	          0.00000000	          0.00000000	          0.00000000	          0.00000000	
          0.56400000	        126.84719784	        732.49663723	        -17.71753269	         -0.77229099	          0.00000000	          0.06252988	          0.00000000	          0.00000000	          0.00000000	          0.00000000	          0.00000000	          0.00000000	          0.00000000	          2.29610131	          0.00000000	          0.00000000	          0.00000000	          0.00000000	
